<svg xmlns="http://www.w3.org/2000/svg" viewBox="0 0 240 72" role="img" aria-label="Protean e-Gov Technologies">
  <defs>
    <linearGradient id="pg1" x1="0%" y1="0%" x2="100%" y2="100%">
      <stop offset="0%" stop-color="#F5C518"/>
      <stop offset="35%" stop-color="#F97316"/>
      <stop offset="65%" stop-color="#EF4444"/>
      <stop offset="100%" stop-color="#2563EB"/>
    </linearGradient>
  </defs>
  <!-- Protean multicolor emblem (simplified official-style mark) -->
  <g transform="translate(8,8)">
    <circle cx="22" cy="22" r="18" fill="#FACC15" opacity="0.95"/>
    <circle cx="30" cy="18" r="16" fill="#F97316" opacity="0.92"/>
    <circle cx="34" cy="28" r="15" fill="#EF4444" opacity="0.9"/>
    <circle cx="26" cy="34" r="14" fill="#3B82F6" opacity="0.88"/>
    <circle cx="16" cy="30" r="13" fill="#22C55E" opacity="0.85"/>
    <path d="M14 38 V14 h14 c8 0 13 5 13 12 c0 5 -3 9 -8 10 l10 14 h-9 l-8 -12 h-5 v12 z m5 -17 h8 c3 0 5 -2 5 -5 s-2 -5 -5 -5 h-8 z" fill="#111827"/>
  </g>
  <text x="64" y="30" font-family="Arial, Helvetica, sans-serif" font-size="22" font-weight="700" fill="#111827">protean</text>
  <text x="64" y="48" font-family="Arial, Helvetica, sans-serif" font-size="11" font-weight="600" fill="#475569" letter-spacing="0.04em">e-Gov Technologies Ltd.</text>
  <text x="64" y="62" font-family="Arial, Helvetica, sans-serif" font-size="9" font-weight="500" fill="#64748B">Formerly NSDL e-Governance</text>
</svg>
